<svg width="16" height="16" viewBox="0 0 16 16" fill="none" xmlns="http://www.w3.org/2000/svg">
<path fill-rule="evenodd" clip-rule="evenodd" d="M3.3335 7.33317C2.96531 7.33317 2.66683 7.63165 2.66683 7.99984V13.3332C2.66683 13.7014 2.96531 13.9998 3.3335 13.9998H12.6668C13.035 13.9998 13.3335 13.7014 13.3335 13.3332V7.99984C13.3335 7.63165 13.035 7.33317 12.6668 7.33317H3.3335ZM1.3335 7.99984C1.3335 6.89527 2.22893 5.99984 3.3335 5.99984H12.6668C13.7714 5.99984 14.6668 6.89527 14.6668 7.99984V13.3332C14.6668 14.4377 13.7714 15.3332 12.6668 15.3332H3.3335C2.22893 15.3332 1.3335 14.4377 1.3335 13.3332V7.99984Z" fill="#C3CAD5"/>
<path fill-rule="evenodd" clip-rule="evenodd" d="M9.02058 2.2028C8.47826 1.97818 7.87697 1.93878 7.30997 2.09071C6.74297 2.24264 6.24194 2.57741 5.88459 3.0431C5.52724 3.50878 5.33353 4.07937 5.3335 4.66636V4.66636V7.33303H4.00016V4.66636C4.0002 3.78585 4.29077 2.92994 4.8268 2.2314C5.36283 1.53286 6.11437 1.0307 6.96487 0.802806C7.81537 0.574911 8.71731 0.634013 9.5308 0.970946C10.3443 1.30788 11.0239 1.90381 11.4642 2.66633L11.7975 3.24366L10.6429 3.91039L10.3095 3.33305C10.016 2.82471 9.56291 2.42742 9.02058 2.2028Z" fill="#C3CAD5"/>
<path fill-rule="evenodd" clip-rule="evenodd" d="M3.3335 7.33317C2.96531 7.33317 2.66683 7.63165 2.66683 7.99984V13.3332C2.66683 13.7014 2.96531 13.9998 3.3335 13.9998H12.6668C13.035 13.9998 13.3335 13.7014 13.3335 13.3332V7.99984C13.3335 7.63165 13.035 7.33317 12.6668 7.33317H3.3335ZM8.00016 9.33317C7.26378 9.33317 6.66683 9.93012 6.66683 10.6665C6.66683 11.4029 7.26378 11.9998 8.00016 11.9998C8.73654 11.9998 9.3335 11.4029 9.3335 10.6665C9.3335 9.93012 8.73654 9.33317 8.00016 9.33317Z" fill="#C3CAD5"/>
</svg>
